<svg data-v-fde0c5aa="" xmlns="http://www.w3.org/2000/svg" viewBox="0 0 300 300" class="iconAbove"><!----><defs data-v-fde0c5aa=""><!----></defs><rect data-v-fde0c5aa="" fill="#CEE0C9" x="0" y="0" width="300px" height="300px" class="logo-background-square"></rect><defs data-v-fde0c5aa=""><!----></defs><g data-v-fde0c5aa="" id="3c029391-6b96-4bc1-ab82-276ceca13d0e" fill="#000000" transform="matrix(3.4373347712583637,0,0,3.4373347712583637,17.731358960821787,160.632732049489)"><path d="M4.84 15.22C6.76 15.22 8.54 14.04 8.54 11.42C8.54 10.09 7.85 9.45 6.89 9.45C6.40 9.45 5.91 9.63 5.73 10.02C6.44 10.37 6.55 11.20 6.55 11.91C6.55 13.01 6.29 14.56 4.96 14.56C3.46 14.56 2.81 13.09 2.81 10.14C2.81 7.18 3.47 5.71 5.01 5.71C5.87 5.71 6.37 6.38 6.51 7.87C7.55 7.88 8.08 7.31 8.08 6.73C8.08 5.66 6.44 5.05 4.98 5.05C2.27 5.05 0.66 6.90 0.66 10.14C0.66 13.37 2.20 15.22 4.84 15.22ZM13.71 7.59C12.80 7.59 12.19 8.08 11.86 9.11C11.77 8.08 11.23 7.59 10.43 7.59C9.69 7.59 9.28 8.01 9.28 8.58C9.28 8.81 9.34 8.99 9.46 9.18C9.55 9.04 9.73 9.02 9.83 9.02C10.07 9.02 10.19 9.23 10.19 9.76L10.19 14.08C10.19 14.78 10.72 15.18 11.31 15.18C11.86 15.16 12.25 14.91 12.42 14.76C12.10 14 12.10 13.50 12.10 11.73C12.10 9.55 12.49 8.47 13.15 8.47C13.54 8.47 13.72 8.74 13.72 9.20C13.72 9.58 13.66 9.80 13.47 10.16C13.64 10.36 13.96 10.47 14.35 10.47C15.02 10.46 15.53 9.93 15.53 9.20C15.53 8.19 14.77 7.59 13.71 7.59ZM23.14 13.55C23.04 13.69 22.86 13.73 22.76 13.73C22.46 13.73 22.30 13.48 22.30 12.99L22.30 10.63C22.30 8.44 21.36 7.59 19.28 7.59C17.44 7.59 16.27 8.20 16.27 9.32C16.27 10.05 16.79 10.63 17.70 10.63C18.10 10.63 18.49 10.51 18.72 10.29C18.33 10.07 18.23 9.63 18.23 9.25C18.23 8.51 18.62 8.22 19.17 8.22C20.05 8.22 20.33 8.99 20.33 10.50L20.33 10.85C19.80 10.88 19.12 10.93 18.38 11.14C17.22 11.48 15.93 12.17 15.93 13.51C15.93 14.59 16.72 15.16 17.78 15.16C19.07 15.16 19.98 14.38 20.47 13.33C20.58 14.69 21.14 15.16 21.99 15.16C22.82 15.16 23.32 14.70 23.32 14.15C23.32 13.99 23.27 13.75 23.14 13.55ZM18.79 13.92C18.26 13.97 18.05 13.51 18.05 13.03C18.05 12.47 18.37 12.03 18.82 11.77C19.25 11.52 19.84 11.47 20.38 11.47C20.38 12.84 19.50 13.85 18.79 13.92ZM30.65 12.98L30.65 10.39C30.65 8.53 29.93 7.59 28.39 7.59C27.17 7.59 26.43 8.19 26.07 9.24C26.01 8.12 25.45 7.59 24.63 7.59C23.88 7.59 23.48 8.01 23.48 8.58C23.48 8.81 23.53 8.99 23.66 9.18C23.74 9.04 23.93 9.02 24.02 9.02C24.26 9.02 24.37 9.23 24.39 9.76L24.39 14.14C24.39 14.81 24.86 15.23 25.52 15.23C26.04 15.23 26.45 14.97 26.61 14.81C26.29 14.06 26.29 13.55 26.29 11.73C26.29 9.60 26.88 8.54 27.73 8.54C28.55 8.54 28.71 9.34 28.73 10.70L28.73 14.24C28.73 14.85 29.20 15.23 29.83 15.23C30.31 15.23 30.67 15.04 30.94 14.80C30.69 14.18 30.66 13.40 30.65 12.98ZM39.38 13.57C39.30 13.69 39.12 13.72 39.02 13.72C38.71 13.72 38.54 13.48 38.54 12.99L38.56 5.75C38.56 5.12 38.07 4.76 37.45 4.76C36.90 4.76 36.51 5.04 36.34 5.18C36.62 6.13 36.67 7.20 36.67 7.84L36.67 8.41C36.40 7.88 35.83 7.59 34.97 7.59C33.05 7.59 31.98 9.06 31.98 11.66C31.98 13.73 32.69 15.22 34.47 15.22C35.60 15.22 36.39 14.60 36.81 13.33C36.93 14.46 37.41 15.15 38.32 15.15C39.02 15.15 39.56 14.74 39.56 14.17C39.56 14 39.51 13.76 39.38 13.57ZM35.06 14.18C34.29 14.18 34.03 13.34 34.03 11.62C34.03 9.69 34.41 8.54 35.46 8.54C36.47 8.54 36.62 9.48 36.62 10.49C36.62 12.32 36.16 14.18 35.06 14.18ZM51.42 12.98L51.42 6.05C51.42 5.43 50.93 5.07 50.30 5.07C49.76 5.07 49.35 5.33 49.18 5.49C49.42 6.12 49.46 6.78 49.46 7.31L49.46 9.41L45.89 9.41L45.89 6.05C45.89 5.43 45.40 5.07 44.77 5.07C44.23 5.07 43.82 5.33 43.65 5.49C43.89 6.12 43.93 6.78 43.93 7.31L43.93 14.24C43.93 14.85 44.41 15.23 45.05 15.23C45.60 15.23 46.00 14.95 46.17 14.80C45.92 14.18 45.89 13.51 45.89 12.98L45.89 10.44L49.46 10.44L49.46 14.24C49.46 14.85 49.94 15.23 50.58 15.23C51.13 15.23 51.53 14.95 51.70 14.80C51.45 14.18 51.42 13.51 51.42 12.98ZM56.41 15.22C58.59 15.22 59.86 13.80 59.86 11.41C59.86 9.00 58.59 7.59 56.41 7.59C54.22 7.59 52.95 9.00 52.95 11.41C52.95 13.80 54.22 15.22 56.41 15.22ZM56.41 14.57C55.44 14.57 55.01 13.51 55.01 11.41C55.01 9.30 55.44 8.23 56.41 8.23C57.36 8.23 57.79 9.30 57.79 11.41C57.79 13.51 57.36 14.57 56.41 14.57ZM63.38 7.80C63.42 7.29 63.49 6.86 63.63 6.34C63.48 6.20 63.10 5.92 62.54 5.92C61.91 5.92 61.43 6.29 61.43 6.90L61.43 7.80L60.90 7.80C60.63 7.80 60.41 7.94 60.40 8.25L60.38 8.71C60.56 8.68 61.04 8.65 61.22 8.65L61.43 8.65L61.43 13.16C61.43 14.39 62.05 15.16 63.18 15.16C64.13 15.16 64.72 14.74 64.72 14.15C64.72 13.99 64.67 13.75 64.53 13.55C64.46 13.69 64.16 13.73 63.98 13.73C63.56 13.73 63.35 13.48 63.35 12.99L63.35 9.06L63.35 8.65L64.55 8.65C64.82 8.65 65.03 8.50 65.04 8.19L65.06 7.74C64.93 7.77 63.67 7.80 63.38 7.80ZM71.61 12.98C71.30 13.57 70.64 14.03 69.61 14.03C68.45 14.03 67.72 13.45 67.58 11.80C68.07 11.86 68.52 11.86 68.95 11.86C70.73 11.86 71.96 11.10 71.96 9.72C71.96 8.30 70.69 7.59 69.08 7.59C66.75 7.59 65.49 9.03 65.49 11.38C65.49 13.83 66.89 15.22 69.06 15.22C70.39 15.22 71.37 14.70 71.74 13.79C71.95 13.27 71.81 13.06 71.61 12.98ZM69.01 8.23C69.45 8.23 69.89 8.46 69.89 9.39C69.89 11.05 68.64 11.17 67.82 11.16C67.72 11.16 67.63 11.16 67.55 11.14L67.55 11.13C67.55 9.32 68.08 8.23 69.01 8.23ZM75.03 15.16C75.71 15.16 76.30 14.74 76.30 14.15C76.30 13.99 76.24 13.75 76.10 13.55C76.02 13.69 75.82 13.73 75.70 13.73C75.38 13.73 75.21 13.48 75.21 12.99L75.21 7.91C75.21 6.75 75.25 6.08 75.49 5.18C75.33 5.04 74.96 4.76 74.40 4.76C73.77 4.76 73.29 5.12 73.29 5.75L73.29 13.16C73.29 14.39 73.89 15.16 75.03 15.16Z"></path></g><defs data-v-fde0c5aa=""><!----></defs><g data-v-fde0c5aa="" id="28d881a8-ded3-4f17-90e4-b206dc9b978c" stroke="none" fill="#000000" transform="matrix(0.783397589340565,0,0,0.783397589340565,111.4078771516378,87.01666095773312)"><path d="M93.75 80.334v-50.8c-23.014 9.118-67.733 9.118-67.733 9.118v42.117h-3.475v11.11h75.984v-8.071l-4.776-3.474zm-62.089.432h-3.474v-5.644h3.474v5.644zm0-9.262h-3.474V65.86h3.474v5.644zm0-9.262h-3.474V56.6h3.474v5.642zm0-9.263h-3.474v-5.643h3.474v5.643zm5.963 27.787H34.15v-5.644h3.473v5.644zm0-9.262H34.15V65.86h3.473v5.644zm0-9.262H34.15V56.6h3.473v5.642zm0-9.263H34.15v-5.643h3.473v5.643zm5.963 27.787h-3.474v-5.644h3.474v5.644zm0-9.262h-3.474V65.86h3.474v5.644zm0-9.262h-3.474V56.6h3.474v5.642zm0-9.263h-3.474v-5.643h3.474v5.643zm5.96 27.787h-3.473v-5.644h3.473v5.644zm0-9.262h-3.473V65.86h3.473v5.644zm0-9.262h-3.473V56.6h3.473v5.642zm0-9.263h-3.473v-5.643h3.473v5.643zm5.964 27.787h-3.473v-5.644h3.473v5.644zm0-9.262h-3.473V65.86h3.473v5.644zm0-9.262h-3.473V56.6h3.473v5.642zm0-9.263h-3.473v-5.643h3.473v5.643zm5.961 27.787h-3.471v-5.644h3.471v5.644zm0-9.262h-3.471V65.86h3.471v5.644zm0-9.262h-3.471V56.6h3.471v5.642zm0-9.263h-3.471v-5.643h3.471v5.643zm5.963 27.787h-3.474v-5.644h3.474v5.644zm0-9.262h-3.474V65.86h3.474v5.644zm0-9.262h-3.474V56.6h3.474v5.642zM73.4 80.766h-3.475v-5.644H73.4v5.644zm0-9.262h-3.475V65.86H73.4v5.644zm0-9.262h-3.475V56.6H73.4v5.642zm5.962 18.524h-3.474v-5.644h3.474v5.644zm0-9.262h-3.474V65.86h3.474v5.644zm5.963 9.262h-3.474v-5.644h3.474v5.644zM41.325 15.09l-3.021-2.681 1.678-.762 2.689 1.698 8.559-4.212-8.649-8.118L44.822 0l10.796 6.903 1.462-.681c.87-.395 1.706-.64 2.514-.738l1.112-.121c.824-.082 1.299.007 1.417.269.127.282-.113.705-.717 1.271l-.823.758c-.604.543-1.359 1.019-2.253 1.425l-1.438.617-1.904 12.688-2.237 1.016-.419-11.854-8.806 3.669-.491 3.143-1.677.763-.033-4.038zM5.609 91.879H3.366l2.244-1.371v-2.243l1.763 1.808v-2.449l2.083 1.282s3.045-24.842.801-32.696c0 0-4.247 1.443-4.729 4.167 0 0-1.202-3.686.962-6.57 0 0-3.446-1.923-6.491-.962 0 0 3.273-4.087 6.639-1.976 0 0 1.096-5.038 3.058-6.038 0 0-.882 2.645.561 4.889 0 0 3.202-1.62 7.123-.597 0 0-1.994.677-3.437 3.241 0 0 1.603 3.205 1.764 5.128 0 0-2.645-1.603-4.087-1.603 0 0 1.202 1.122.08 32.535l2.164-1.121-.241 2.564 2.885-.962-.481 2.003.962.971H5.609z"></path></g><!----></svg>